control_change channel=0 control=64 value=127 time=91
note_on channel=0 note=88 velocity=28 time=0
note_on channel=0 note=62 velocity=0 time=240
control_change channel=0 control=64 value=0 time=24
ccntrol_change channel=0 control=64 value=127 time=40
control_change channel=0 control=64 value=127 time=72
note_on channel=0 note=72 velocity=34 time=0
control_change channel=0 control=64 value=127 time=42
note_on channel=0 note=48 velocity=27 time=0
control_change channel=0 control=64 value=0 time=12
control_change channel=0 control=64 value=127 time=96
control_change channel=0 control=64 value=127 time=97
control_change channel=0 control=64 value=127 time=77
note_on channel=0 note=74 velocity=27 time=0
note_on channel=0 note=61 velocity=33 time=120
control_change channel=0 control=64 value=127 time=90
note_on channel=0 note=50 velocity=0 time=0
note_on channel=0 note=41 velocity=54 time=0
note_on channel=0 note=60 velocity=25 time=0
note_on channel=0 note=77 velocity=33 time=0
note_on channel=0 note=71 velocity=0 time=26
note_on channel=0 note=82 velocity=65 time=0
note_on channel=0 note=75 velocity=0 time=260
note_on channel=0 note=91 velocity=53 time=0
note_on channel=0 note=82 velocity=52 time=0
control_change channel=0 control=64 value=127 time=174
note_on channel=0 note=68 velocity=0 time=240
note_on channel=0 note=85 velocity=28 time=0
note_on channel=0 note=51 velocity=0 time=60
note_on channel=0 note=74 velocity=25 time=0
note_on channel=0 note=41 velocity=61 time=0
note_on channel=0 note=81 velocity=42 time=0
note_on channel=0 note=86 velocity=0 time=0
note_on channel=0 note=82 velocity=25 time=0
note_on channel=0 note=70 velocity=0 time=240
note_on channel=0 note=58 velocity=69 time=60
note_on channel=0 note=70 velocity=0 time=0
note_on channel=0 note=58 velocity=57 time=0
control_change channel=0 control=64 value=127 time=13
note_on channel=0 note=90 velocity=62 time=0